<svg width="80" height="60" viewBox="0 0 80 60" fill="none" xmlns="http://www.w3.org/2000/svg">
<path d="M40.2967 50.0441L46.9858 44.8543L53.675 50.0441L60.3641 44.8543L67.0533 50.0441L73.7424 44.8543L79.7842 49.9382L80 49.6734L73.7424 44.4307L67.0533 49.5675L60.3641 44.4307L53.675 49.5675L46.9858 44.4307L40.2967 49.5675L33.6076 44.4307L26.8645 49.5675L20.1753 44.4307L13.4862 49.5675L6.79704 44.4307L-5.06752e-07 49.6734L0.215789 49.9382L6.79704 44.8543L13.4862 50.0441L20.1753 44.8543L26.8645 50.0441L33.6076 44.8543L40.2967 50.0441Z" fill="#424254"/>
<path d="M40.2967 59.9999L46.9858 54.8101L53.675 59.9999L60.3641 54.8101L67.0533 59.9999L73.7424 54.8631L79.7842 59.947L80 59.6822L73.7424 54.3865L67.0533 59.5763L60.3641 54.3865L53.675 59.5763L46.9858 54.3865L40.2967 59.5762L33.6076 54.3865L26.8645 59.5762L20.1753 54.3865L13.4862 59.5762L6.79704 54.3865L-5.06752e-07 59.6292L0.215789 59.9469L6.79704 54.8101L13.4862 59.9999L20.1753 54.8101L26.8645 59.9999L33.6076 54.8101L40.2967 59.9999Z" fill="#424254"/>
<path d="M40.2967 40.0353L46.9858 34.8456L53.675 40.0353L60.3641 34.8456L67.0533 40.0353L73.7424 34.8456L79.7842 39.9824L80 39.7176L73.7424 34.4219L67.0533 39.6117L60.3641 34.4219L53.675 39.6117L46.9858 34.4219L40.2967 39.6117L33.6076 34.4219L26.8645 39.6117L20.1753 34.4219L13.4862 39.6117L6.79704 34.4219L-4.65927e-07 39.6646L0.215789 39.9824L6.79704 34.8455L13.4862 40.0353L20.1753 34.8456L26.8645 40.0353L33.6076 34.8456L40.2967 40.0353Z" fill="#424254"/>
<path d="M48.1181 6.24923C48.1181 9.63848 50.9232 12.3393 54.3217 12.3393C57.7742 12.3393 60.5254 9.58552 60.5254 6.24923C60.5254 2.85999 57.7203 0.159179 54.3218 0.159179C50.9232 0.159179 48.1181 2.85998 48.1181 6.24923Z" fill="#424254"/>
<path d="M54.322 12.4979C57.8284 12.4979 60.6875 9.69112 60.6875 6.24892C60.6875 2.80671 57.8284 -2.54753e-07 54.322 -5.67186e-07C50.8156 -8.7962e-07 47.9566 2.80671 47.9566 6.24892C47.9566 9.69112 50.8156 12.4979 54.322 12.4979ZM54.322 0.317745C57.6666 0.317745 60.3638 2.96559 60.3638 6.24892C60.3638 9.53225 57.6666 12.1801 54.322 12.1801C50.9775 12.1801 48.2802 9.53225 48.2802 6.24892C48.2802 2.96558 50.9775 0.317744 54.322 0.317745Z" fill="#424254"/>
<path opacity="0.8" d="M26.5648 23.5743C25.9966 21.2118 27.4868 18.8444 29.8933 18.2866C32.2999 17.7287 34.7114 19.1917 35.2797 21.5542C35.8479 23.9166 34.3577 26.284 31.9512 26.8419C29.5446 27.3997 27.1331 25.9368 26.5648 23.5743Z" fill="#FB8614"/>
<path d="M30.9106 27.061C33.446 27.061 35.5498 25.0486 35.5498 22.5067C35.5498 20.0177 33.4999 17.9524 30.9106 17.9524C28.3752 17.9524 26.2713 19.9648 26.2713 22.5067C26.2713 25.0486 28.3212 27.061 30.9106 27.061ZM30.9106 18.3231C33.2841 18.3231 35.2261 20.2295 35.2261 22.5597C35.2261 24.8898 33.2841 26.7962 30.9106 26.7962C28.537 26.7962 26.595 24.8898 26.595 22.5597C26.595 20.2295 28.537 18.3231 30.9106 18.3231Z" fill="#424254"/>
</svg>
